<mxfile host="app.diagrams.net" modified="2023-06-16T06:34:37.592Z" agent="Mozilla/5.0 (Windows NT 10.0; Win64; x64) AppleWebKit/537.36 (KHTML, like Gecko) Chrome/114.0.0.0 Safari/537.36" etag="lMutnEWm_FQ36YTpbhXL" version="21.4.0" type="github">
  <diagram name="Page-1" id="5f0bae14-7c28-e335-631c-24af17079c00">
    <mxGraphModel dx="1130" dy="395" grid="1" gridSize="10" guides="1" tooltips="1" connect="1" arrows="1" fold="1" page="1" pageScale="1" pageWidth="1100" pageHeight="850" background="none" math="0" shadow="0">
      <root>
        <mxCell id="0" />
        <mxCell id="1" parent="0" />
        <mxCell id="RdsTdk07A-o18HDUI7we-4" value="&lt;p style=&quot;margin:0px;margin-top:4px;text-align:center;&quot;&gt;&lt;b&gt;Drug Service&lt;/b&gt;&lt;/p&gt;&lt;hr size=&quot;1&quot;&gt;&lt;div style=&quot;height:2px;&quot;&gt;&lt;br&gt;&lt;/div&gt;" style="verticalAlign=top;align=left;overflow=fill;fontSize=12;fontFamily=Helvetica;html=1;whiteSpace=wrap;strokeColor=#0266f2;" parent="1" vertex="1">
          <mxGeometry x="180" y="90" width="795" height="430" as="geometry" />
        </mxCell>
        <mxCell id="RdsTdk07A-o18HDUI7we-6" value="&lt;p style=&quot;margin:0px;margin-top:4px;text-align:center;&quot;&gt;&lt;b&gt;MultiTenancy Util Lib&lt;/b&gt;&lt;/p&gt;&lt;hr size=&quot;1&quot;&gt;&lt;div style=&quot;height:2px;&quot;&gt;&lt;/div&gt;" style="verticalAlign=top;align=left;overflow=fill;fontSize=12;fontFamily=Helvetica;html=1;whiteSpace=wrap;" parent="1" vertex="1">
          <mxGeometry x="245" y="160" width="165" height="170" as="geometry" />
        </mxCell>
        <mxCell id="CG3TOa5hcq1ZWwIJxW8Z-67" style="edgeStyle=orthogonalEdgeStyle;rounded=0;orthogonalLoop=1;jettySize=auto;html=1;entryX=1;entryY=0.5;entryDx=0;entryDy=0;dashed=1;" parent="1" source="RdsTdk07A-o18HDUI7we-8" target="CG3TOa5hcq1ZWwIJxW8Z-66" edge="1">
          <mxGeometry relative="1" as="geometry">
            <Array as="points">
              <mxPoint x="200" y="210" />
              <mxPoint x="200" y="323" />
            </Array>
          </mxGeometry>
        </mxCell>
        <mxCell id="RdsTdk07A-o18HDUI7we-8" value="&lt;b&gt;&lt;font color=&quot;#ff00ff&quot;&gt;MultiTenancyFilter&lt;/font&gt;&lt;/b&gt;" style="html=1;whiteSpace=wrap;align=center;" parent="1" vertex="1">
          <mxGeometry x="262.5" y="200" width="140" height="20" as="geometry" />
        </mxCell>
        <mxCell id="VQmsO8RJKZGxtteuDF_l-19" style="edgeStyle=orthogonalEdgeStyle;rounded=1;orthogonalLoop=1;jettySize=auto;html=1;exitX=0.25;exitY=1;exitDx=0;exitDy=0;dashed=1;" parent="1" source="VQmsO8RJKZGxtteuDF_l-1" target="VQmsO8RJKZGxtteuDF_l-14" edge="1">
          <mxGeometry relative="1" as="geometry">
            <Array as="points">
              <mxPoint x="290" y="350" />
            </Array>
          </mxGeometry>
        </mxCell>
        <mxCell id="CG3TOa5hcq1ZWwIJxW8Z-34" value="parse multi &lt;br&gt;tenancy &lt;br&gt;json config to a &lt;br&gt;Map&amp;lt;SubScriptionKey, EndClient&amp;gt;&amp;nbsp;&lt;br&gt;when starting up&lt;br&gt;the service" style="edgeLabel;html=1;align=center;verticalAlign=middle;resizable=0;points=[];" parent="VQmsO8RJKZGxtteuDF_l-19" vertex="1" connectable="0">
          <mxGeometry x="0.0751" y="1" relative="1" as="geometry">
            <mxPoint x="42" y="1" as="offset" />
          </mxGeometry>
        </mxCell>
        <mxCell id="VQmsO8RJKZGxtteuDF_l-1" value="&lt;b&gt;&lt;font color=&quot;#ff00ff&quot;&gt;MultiTenancyUtil&lt;/font&gt;&lt;/b&gt;" style="html=1;whiteSpace=wrap;align=center;" parent="1" vertex="1">
          <mxGeometry x="257.5" y="280" width="140" height="20" as="geometry" />
        </mxCell>
        <mxCell id="VQmsO8RJKZGxtteuDF_l-18" style="edgeStyle=orthogonalEdgeStyle;orthogonalLoop=1;jettySize=auto;html=1;exitX=0;exitY=0.75;exitDx=0;exitDy=0;dashed=1;entryX=1;entryY=0.5;entryDx=0;entryDy=0;rounded=0;" parent="1" source="VQmsO8RJKZGxtteuDF_l-14" target="VQmsO8RJKZGxtteuDF_l-16" edge="1">
          <mxGeometry relative="1" as="geometry">
            <mxPoint x="360" y="550" as="targetPoint" />
            <Array as="points">
              <mxPoint x="315" y="488" />
              <mxPoint x="315" y="485" />
            </Array>
          </mxGeometry>
        </mxCell>
        <mxCell id="VQmsO8RJKZGxtteuDF_l-14" value="&lt;p style=&quot;margin:0px;margin-top:4px;text-align:center;&quot;&gt;&lt;b&gt;application.yaml&lt;/b&gt;&lt;/p&gt;&lt;hr size=&quot;1&quot;&gt;&lt;div style=&quot;height:2px;&quot;&gt;- dhp-multi-tenants&lt;/div&gt;" style="verticalAlign=top;align=left;overflow=fill;fontSize=12;fontFamily=Helvetica;html=1;whiteSpace=wrap;" parent="1" vertex="1">
          <mxGeometry x="245" y="450" width="140" height="50" as="geometry" />
        </mxCell>
        <mxCell id="VQmsO8RJKZGxtteuDF_l-16" value="&lt;b&gt;Azure KeyVault&lt;/b&gt;" style="html=1;whiteSpace=wrap;" parent="1" vertex="1">
          <mxGeometry x="40" y="460" width="110" height="50" as="geometry" />
        </mxCell>
        <mxCell id="VQmsO8RJKZGxtteuDF_l-24" value="&lt;b&gt;&lt;font color=&quot;#ff00ff&quot;&gt;WebClientManager&lt;/font&gt;&lt;/b&gt;" style="html=1;whiteSpace=wrap;align=center;" parent="1" vertex="1">
          <mxGeometry x="260" y="240" width="140" height="20" as="geometry" />
        </mxCell>
        <mxCell id="VQmsO8RJKZGxtteuDF_l-87" value="&lt;b&gt;DownStream Server&lt;/b&gt;" style="html=1;whiteSpace=wrap;" parent="1" vertex="1">
          <mxGeometry x="1020" y="350" width="110" height="50" as="geometry" />
        </mxCell>
        <mxCell id="CbbjqMAdhNKeJyTU17QE-8" value="&lt;font style=&quot;background-color: rgb(255, 51, 255);&quot; color=&quot;#ff33ff&quot;&gt;&amp;nbsp; &amp;nbsp; &amp;nbsp; &amp;nbsp; &amp;nbsp;&amp;nbsp;&lt;/font&gt;" style="text;html=1;align=center;verticalAlign=middle;resizable=0;points=[];autosize=1;strokeColor=none;fillColor=none;" parent="1" vertex="1">
          <mxGeometry x="130" y="55" width="60" height="30" as="geometry" />
        </mxCell>
        <mxCell id="CbbjqMAdhNKeJyTU17QE-9" value="Bean:" style="text;html=1;align=center;verticalAlign=middle;resizable=0;points=[];autosize=1;strokeColor=none;fillColor=none;" parent="1" vertex="1">
          <mxGeometry x="90" y="55" width="50" height="30" as="geometry" />
        </mxCell>
        <mxCell id="CG3TOa5hcq1ZWwIJxW8Z-20" value="&lt;br&gt;&lt;br&gt;&lt;br&gt;&lt;br&gt;&lt;br&gt;&lt;br&gt;&lt;br&gt;HTTP&lt;br&gt;Request" style="shape=actor;whiteSpace=wrap;html=1;" parent="1" vertex="1">
          <mxGeometry x="20" y="170" width="40" height="60" as="geometry" />
        </mxCell>
        <mxCell id="CG3TOa5hcq1ZWwIJxW8Z-21" value="&lt;b&gt;&lt;font color=&quot;#ff0000&quot;&gt;multi-tenancy-header: &lt;/font&gt;&lt;br&gt;apim-sub-key&lt;/b&gt;" style="html=1;verticalAlign=bottom;startArrow=oval;endArrow=block;startSize=8;edgeStyle=elbowEdgeStyle;elbow=vertical;curved=0;rounded=0;exitX=1;exitY=0.75;exitDx=0;exitDy=0;fillColor=#dae8fc;strokeColor=#016afe;strokeWidth=2;" parent="1" source="CG3TOa5hcq1ZWwIJxW8Z-20" target="RdsTdk07A-o18HDUI7we-8" edge="1">
          <mxGeometry x="-0.3103" y="10" relative="1" as="geometry">
            <mxPoint x="85" y="220" as="sourcePoint" />
            <mxPoint x="245" y="205" as="targetPoint" />
            <mxPoint as="offset" />
            <Array as="points">
              <mxPoint x="180" y="200" />
            </Array>
          </mxGeometry>
        </mxCell>
        <mxCell id="CG3TOa5hcq1ZWwIJxW8Z-22" style="edgeStyle=orthogonalEdgeStyle;rounded=0;orthogonalLoop=1;jettySize=auto;html=1;fillColor=#dae8fc;strokeColor=#016afe;strokeWidth=2;entryX=0;entryY=0.5;entryDx=0;entryDy=0;" parent="1" source="RdsTdk07A-o18HDUI7we-8" target="CG3TOa5hcq1ZWwIJxW8Z-25" edge="1">
          <mxGeometry relative="1" as="geometry">
            <mxPoint x="485" y="198" as="targetPoint" />
            <Array as="points" />
          </mxGeometry>
        </mxCell>
        <mxCell id="CG3TOa5hcq1ZWwIJxW8Z-30" value="" style="edgeStyle=orthogonalEdgeStyle;rounded=0;orthogonalLoop=1;jettySize=auto;html=1;fillColor=#dae8fc;strokeColor=#0266f2;strokeWidth=2;exitX=0.25;exitY=1;exitDx=0;exitDy=0;entryX=0.25;entryY=0;entryDx=0;entryDy=0;" parent="1" source="CG3TOa5hcq1ZWwIJxW8Z-25" target="CG3TOa5hcq1ZWwIJxW8Z-26" edge="1">
          <mxGeometry relative="1" as="geometry">
            <Array as="points" />
          </mxGeometry>
        </mxCell>
        <mxCell id="CG3TOa5hcq1ZWwIJxW8Z-25" value="&lt;b style=&quot;border-color: var(--border-color);&quot;&gt;&lt;font color=&quot;#ff33ff&quot; style=&quot;border-color: var(--border-color);&quot;&gt;Controller&lt;/font&gt;&lt;/b&gt;&lt;b&gt;&lt;font color=&quot;#ff00ff&quot;&gt;&lt;br&gt;&lt;/font&gt;&lt;/b&gt;" style="html=1;whiteSpace=wrap;align=center;" parent="1" vertex="1">
          <mxGeometry x="455" y="195" width="130" height="30" as="geometry" />
        </mxCell>
        <mxCell id="dzeqMT_aTfjdizQfDeOP-3" style="edgeStyle=orthogonalEdgeStyle;rounded=0;orthogonalLoop=1;jettySize=auto;html=1;exitX=0.25;exitY=1;exitDx=0;exitDy=0;entryX=0.659;entryY=0.009;entryDx=0;entryDy=0;entryPerimeter=0;strokeWidth=2;strokeColor=#0266F2;" parent="1" source="CG3TOa5hcq1ZWwIJxW8Z-26" target="dzeqMT_aTfjdizQfDeOP-1" edge="1">
          <mxGeometry relative="1" as="geometry" />
        </mxCell>
        <mxCell id="CG3TOa5hcq1ZWwIJxW8Z-26" value="&lt;b style=&quot;border-color: var(--border-color);&quot;&gt;&lt;font color=&quot;#ff33ff&quot; style=&quot;border-color: var(--border-color);&quot;&gt;Service&lt;/font&gt;&lt;/b&gt;&lt;b&gt;&lt;font color=&quot;#ff00ff&quot;&gt;&lt;br&gt;&lt;/font&gt;&lt;/b&gt;" style="html=1;whiteSpace=wrap;align=center;" parent="1" vertex="1">
          <mxGeometry x="455" y="270" width="130" height="30" as="geometry" />
        </mxCell>
        <mxCell id="CG3TOa5hcq1ZWwIJxW8Z-58" value="2" style="edgeStyle=orthogonalEdgeStyle;rounded=0;orthogonalLoop=1;jettySize=auto;html=1;strokeColor=#0066CC;strokeWidth=2;fontSize=20;" parent="1" source="CG3TOa5hcq1ZWwIJxW8Z-42" target="VQmsO8RJKZGxtteuDF_l-87" edge="1">
          <mxGeometry relative="1" as="geometry">
            <Array as="points">
              <mxPoint x="1050" y="455" />
            </Array>
          </mxGeometry>
        </mxCell>
        <mxCell id="CG3TOa5hcq1ZWwIJxW8Z-66" value="&lt;span style=&quot;background-color: initial;&quot;&gt;1. Logging AppName&lt;/span&gt;" style="whiteSpace=wrap;html=1;aspect=fixed;dashed=1;align=left;" parent="1" vertex="1">
          <mxGeometry x="30" y="280" width="85" height="85" as="geometry" />
        </mxCell>
        <mxCell id="CG3TOa5hcq1ZWwIJxW8Z-42" value="&lt;p style=&quot;margin:0px;margin-top:4px;text-align:center;&quot;&gt;&lt;b&gt;Rest Util Lib&lt;/b&gt;&lt;/p&gt;&lt;hr size=&quot;1&quot;&gt;&lt;div style=&quot;height:2px;&quot;&gt;&lt;/div&gt;" style="verticalAlign=top;align=left;overflow=fill;fontSize=12;fontFamily=Helvetica;html=1;whiteSpace=wrap;" parent="1" vertex="1">
          <mxGeometry x="682.5" y="400" width="213.12" height="110" as="geometry" />
        </mxCell>
        <mxCell id="CG3TOa5hcq1ZWwIJxW8Z-45" value="&lt;p style=&quot;margin:0px;margin-top:4px;text-align:center;&quot;&gt;&lt;b&gt;&lt;font color=&quot;#ff33ff&quot;&gt;RestClient&lt;/font&gt;&lt;/b&gt;&lt;/p&gt;&lt;hr size=&quot;1&quot;&gt;&lt;div style=&quot;height:2px;&quot;&gt;&lt;b&gt;&amp;nbsp;makeRequest() ==&amp;gt; preMakeRequest()&lt;/b&gt;&lt;/div&gt;" style="verticalAlign=top;align=left;overflow=fill;fontSize=12;fontFamily=Helvetica;html=1;whiteSpace=wrap;" parent="1" vertex="1">
          <mxGeometry x="692.8199999999999" y="440" width="192.49" height="60" as="geometry" />
        </mxCell>
        <mxCell id="dzeqMT_aTfjdizQfDeOP-5" style="edgeStyle=orthogonalEdgeStyle;rounded=0;orthogonalLoop=1;jettySize=auto;html=1;exitX=0.5;exitY=1;exitDx=0;exitDy=0;strokeWidth=2;strokeColor=#0266F2;" parent="1" source="dzeqMT_aTfjdizQfDeOP-1" target="CG3TOa5hcq1ZWwIJxW8Z-42" edge="1">
          <mxGeometry relative="1" as="geometry">
            <Array as="points">
              <mxPoint x="473" y="500" />
            </Array>
          </mxGeometry>
        </mxCell>
        <mxCell id="dzeqMT_aTfjdizQfDeOP-1" value="&lt;b style=&quot;border-color: var(--border-color);&quot;&gt;&lt;font color=&quot;#ff33ff&quot; style=&quot;border-color: var(--border-color);&quot;&gt;OmlRestClient&lt;/font&gt;&lt;/b&gt;&lt;b&gt;&lt;font color=&quot;#ff00ff&quot;&gt;&lt;br&gt;&lt;/font&gt;&lt;/b&gt;" style="html=1;whiteSpace=wrap;align=center;" parent="1" vertex="1">
          <mxGeometry x="430" y="370" width="85" height="30" as="geometry" />
        </mxCell>
        <mxCell id="cuIf5C-jtbmaZLGuseTn-1" value="&lt;p style=&quot;margin:0px;margin-top:4px;text-align:center;&quot;&gt;&lt;b&gt;MultiTenancy Util Lib&lt;/b&gt;&lt;/p&gt;&lt;hr size=&quot;1&quot;&gt;&lt;div style=&quot;height:2px;&quot;&gt;&lt;/div&gt;" style="verticalAlign=top;align=left;overflow=fill;fontSize=12;fontFamily=Helvetica;html=1;whiteSpace=wrap;" parent="1" vertex="1">
          <mxGeometry x="682.5" y="180" width="165" height="100" as="geometry" />
        </mxCell>
        <mxCell id="cuIf5C-jtbmaZLGuseTn-2" value="&lt;b style=&quot;border-color: var(--border-color);&quot;&gt;&lt;font style=&quot;border-color: var(--border-color);&quot; color=&quot;#ff00ff&quot;&gt;WebClientManager&lt;/font&gt;&lt;/b&gt;" style="html=1;whiteSpace=wrap;align=center;" parent="1" vertex="1">
          <mxGeometry x="691.25" y="225" width="140" height="20" as="geometry" />
        </mxCell>
        <mxCell id="cuIf5C-jtbmaZLGuseTn-4" style="edgeStyle=orthogonalEdgeStyle;rounded=0;orthogonalLoop=1;jettySize=auto;html=1;entryX=0.25;entryY=1;entryDx=0;entryDy=0;strokeColor=#0066CC;strokeWidth=2;" parent="1" edge="1">
          <mxGeometry relative="1" as="geometry">
            <mxPoint x="740" y="255" as="targetPoint" />
            <Array as="points">
              <mxPoint x="740" y="398" />
            </Array>
            <mxPoint x="740" y="400" as="sourcePoint" />
          </mxGeometry>
        </mxCell>
        <mxCell id="cuIf5C-jtbmaZLGuseTn-5" value="getOrCreateWebClient based on&lt;br style=&quot;border-color: var(--border-color);&quot;&gt;&lt;b style=&quot;border-color: var(--border-color);&quot;&gt;apim-sub-key&lt;/b&gt;&amp;nbsp;---&amp;gt;&amp;nbsp; Map&amp;lt;SubKey, EndClient&amp;gt; ---&amp;gt;&amp;nbsp; EndClient" style="edgeLabel;html=1;align=center;verticalAlign=middle;resizable=0;points=[];" parent="cuIf5C-jtbmaZLGuseTn-4" vertex="1" connectable="0">
          <mxGeometry x="0.3029" y="1" relative="1" as="geometry">
            <mxPoint x="31" y="14" as="offset" />
          </mxGeometry>
        </mxCell>
        <mxCell id="cuIf5C-jtbmaZLGuseTn-6" value="1" style="edgeLabel;html=1;align=center;verticalAlign=middle;resizable=0;points=[];fontSize=20;" parent="cuIf5C-jtbmaZLGuseTn-4" vertex="1" connectable="0">
          <mxGeometry x="-0.3761" y="3" relative="1" as="geometry">
            <mxPoint x="3" y="5" as="offset" />
          </mxGeometry>
        </mxCell>
      </root>
    </mxGraphModel>
  </diagram>
</mxfile>
